<?xml version="1.0" standalone="no"?>
<!DOCTYPE svg PUBLIC "-//W3C//DTD SVG 20010904//EN"
 "http://www.w3.org/TR/2001/REC-SVG-20010904/DTD/svg10.dtd">
<svg version="1.0" xmlns="http://www.w3.org/2000/svg"
 width="2550.000000pt" height="1467.000000pt" viewBox="0 0 2550.000000 1467.000000"
 preserveAspectRatio="xMidYMid meet">

<g transform="translate(0.000000,1467.000000) scale(0.100000,-0.100000)"
fill="#000000" stroke="none">
<path d="M13430 14243 c-63 -65 -254 -262 -425 -437 -170 -175 -336 -346 -369
-380 -32 -34 -140 -144 -240 -246 -99 -102 -269 -275 -376 -385 -290 -298
-1002 -1026 -1746 -1785 -121 -124 -283 -290 -360 -369 -76 -79 -151 -155
-165 -170 -14 -14 -149 -156 -300 -316 -151 -159 -406 -427 -568 -595 -317
-328 -349 -362 -606 -635 -93 -99 -227 -240 -299 -314 l-129 -133 534 5 c531
5 667 13 724 44 19 11 64 56 384 388 273 282 367 380 561 585 107 113 244 257
305 320 61 63 138 143 170 178 32 34 62 61 66 60 4 -2 204 -196 445 -433 242
-236 486 -475 544 -530 58 -56 157 -151 220 -211 159 -153 261 -249 355 -334
l80 -72 265 6 c146 3 299 10 340 15 293 40 2120 34 2720 -9 69 -4 1014 -9
2100 -9 l1975 0 -110 106 c-60 58 -191 185 -290 281 -99 97 -254 248 -345 336
-91 89 -251 244 -355 346 -105 102 -274 266 -376 365 -449 436 -524 509 -690
670 -195 190 -751 730 -839 815 -215 209 -549 529 -620 595 -211 196 -580 551
-1275 1225 -253 246 -373 361 -545 520 -169 156 -337 317 -526 502 l-120 119
-114 -118z m-14 -599 c-381 -393 -476 -488 -476 -474 0 8 102 117 228 242 125
125 259 261 297 301 39 41 71 71 73 67 2 -4 -53 -65 -122 -136z m-612 -96
c-49 -53 -86 -81 -49 -37 22 26 88 88 94 89 2 0 -18 -24 -45 -52z m-165 -165
c-30 -32 -60 -60 -68 -62 -8 -2 14 26 50 61 35 36 66 64 68 62 2 -2 -20 -30
-50 -61z m-99 -104 c-12 -16 -24 -28 -27 -25 -6 6 29 55 40 56 5 0 -1 -14 -13
-31z m-40 -36 c0 -11 -67 -83 -77 -83 -4 -1 -28 -24 -53 -52 -59 -67 -314
-331 -411 -424 -41 -40 -81 -84 -89 -98 -7 -15 -19 -26 -27 -26 -26 0 -51 -28
272 305 213 220 377 384 383 385 1 0 2 -3 2 -7z m354 -172 c-43 -43 -243 -246
-443 -450 -200 -204 -369 -371 -374 -371 -6 0 45 57 114 127 68 70 216 221
329 336 295 301 443 447 449 441 3 -2 -31 -40 -75 -83z m804 -28 c501 -489
687 -670 741 -722 36 -33 60 -61 55 -61 -5 0 -61 51 -125 113 -64 61 -205 198
-314 302 -403 389 -460 445 -448 445 6 0 48 -35 91 -77z m-108 54 c0 -2 -12
-14 -27 -28 l-28 -24 24 28 c23 25 31 32 31 24z m-60 -61 c0 -2 -8 -10 -17
-17 -16 -13 -17 -12 -4 4 13 16 21 21 21 13z m97 -38 c-3 -8 -6 -5 -6 6 -1 11
2 17 5 13 3 -3 4 -12 1 -19z m-181 -53 c-20 -19 -39 -35 -43 -35 -4 0 8 16 27
35 19 19 38 35 42 35 5 0 -7 -16 -26 -35z m362 -231 c241 -230 451 -438 430
-428 -9 5 -61 52 -115 104 -54 52 -152 145 -218 205 -66 61 -159 148 -208 195
l-87 85 7 50 8 50 3 -46 c3 -45 5 -48 180 -215z m-478 113 c-37 -35 -43 -39
-19 -12 20 22 42 47 50 56 8 10 16 15 19 13 2 -3 -20 -28 -50 -57z m180 -21
c0 -2 -8 -10 -17 -17 -16 -13 -17 -12 -4 4 13 16 21 21 21 13z m-1714 -334
c-36 -36 -68 -63 -71 -60 -3 3 25 37 62 75 37 38 70 65 72 60 2 -5 -26 -38
-63 -75z m-157 -159 c-55 -60 -89 -89 -89 -78 0 11 133 145 138 140 3 -3 -19
-31 -49 -62z m2826 -230 c32 -29 56 -55 54 -57 -7 -7 -239 214 -239 226 0 6
28 -18 63 -53 35 -35 90 -88 122 -116z m210 10 c88 -86 151 -150 140 -142 -18
12 -101 90 -257 242 -32 31 -55 57 -51 57 4 -1 80 -71 168 -157z m-2640 105
c-57 -60 -109 -107 -114 -103 -4 5 138 145 147 145 3 0 -12 -19 -33 -42z
m-531 -20 c-54 -59 -76 -78 -85 -78 -5 0 19 29 53 65 34 36 64 62 67 60 2 -3
-13 -24 -35 -47z m-103 -105 c-14 -25 -151 -159 -151 -148 0 12 143 165 153
165 4 0 3 -8 -2 -17z m499 -9 c0 -8 -99 -104 -107 -104 -4 0 17 25 47 55 55
56 60 60 60 49z m-124 -129 c-8 -8 -18 -15 -22 -15 -3 0 -1 7 6 15 7 8 17 15
22 15 5 0 3 -7 -6 -15z m3109 -45 c21 -22 37 -40 34 -40 -3 0 -23 18 -44 40
-21 22 -37 40 -34 40 3 0 23 -18 44 -40z m-3135 16 c0 -2 -7 -9 -15 -16 -13
-11 -14 -10 -9 4 5 14 24 23 24 12z m-540 -31 c-7 -9 -15 -13 -17 -11 -6 6 20
36 26 30 2 -2 -2 -10 -9 -19z m3461 8 c13 -16 12 -17 -3 -4 -17 13 -22 21 -14
21 2 0 10 -8 17 -17z m-3501 -47 c0 -2 -7 -9 -15 -16 -13 -11 -14 -10 -9 4 5
14 24 23 24 12z m3790 -21 c13 -14 21 -25 18 -25 -2 0 -15 11 -28 25 -13 14
-21 25 -18 25 2 0 15 -11 28 -25z m-3310 -8 c0 -2 -10 -12 -22 -23 l-23 -19
19 23 c18 21 26 27 26 19z m3416 -95 c-6 -5 -56 44 -56 54 0 4 13 -5 30 -21
16 -16 28 -30 26 -33z m-3996 24 c0 -2 -8 -10 -17 -17 -16 -13 -17 -12 -4 4
13 16 21 21 21 13z m1160 -19 c0 -2 -12 -14 -27 -28 l-28 -24 24 28 c23 25 31
32 31 24z m3397 -532 c8 -9 13 -18 11 -21 -3 -2 -13 5 -23 16 -21 23 -11 27
12 5z m103 -100 c7 -8 9 -15 6 -15 -4 0 -14 7 -22 15 -9 8 -11 15 -6 15 5 0
15 -7 22 -15z m200 -195 c0 -5 -2 -10 -4 -10 -3 0 -8 5 -11 10 -3 6 -1 10 4
10 6 0 11 -4 11 -10z m75 -79 c-6 -5 -25 10 -25 20 0 5 6 4 14 -3 8 -7 12 -15
11 -17z m396 -378 c13 -16 12 -17 -3 -4 -17 13 -22 21 -14 21 2 0 10 -8 17
-17z m-1751 -343 c0 -6 -64 -10 -173 -10 -96 0 -311 -3 -478 -6 -167 -4 -301
-3 -296 1 4 5 215 11 470 15 254 4 465 7 470 8 4 1 7 -2 7 -8z m-1174 -18 c-3
-5 -162 -9 -353 -10 -191 -1 -411 -5 -488 -8 -101 -5 -137 -3 -130 5 7 7 111
12 315 14 168 1 385 3 483 5 98 1 176 -2 173 -6z m891 -1228 c-3 -3 -12 -4
-19 -1 -8 3 -5 6 6 6 11 1 17 -2 13 -5z m236 -1 c-40 -2 -107 -2 -150 0 -43 1
-10 3 72 3 83 0 118 -2 78 -3z m-1118 -13 c4 -7 -90 -9 -277 -8 l-283 3 270 5
c149 3 273 7 277 8 4 1 10 -2 13 -8z m493 3 c-49 -2 -127 -2 -175 0 -49 1 -9
3 87 3 96 0 136 -2 88 -3z m135 0 c-7 -2 -21 -2 -30 0 -10 3 -4 5 12 5 17 0
24 -2 18 -5z m-1415 -20 c-32 -2 -84 -2 -115 0 -32 2 -6 3 57 3 63 0 89 -1 58
-3z"/>
<path d="M15568 14173 c-4 -9 -124 -123 -252 -238 l-89 -80 7 -354 c4 -196 11
-362 16 -371 8 -15 483 -479 656 -640 166 -155 298 -275 393 -355 l94 -79 -7
480 c-15 1027 -25 1516 -30 1521 -6 6 -70 20 -158 34 -58 9 -130 21 -223 38
-27 5 -90 14 -140 20 -49 7 -115 16 -146 21 -66 12 -116 13 -121 3z m79 -205
c-3 -7 -5 -2 -5 12 0 14 2 19 5 13 2 -7 2 -19 0 -25z"/>
<path d="M16845 11573 c39 -37 144 -139 235 -228 172 -167 474 -458 865 -830
126 -121 302 -290 390 -375 88 -85 223 -216 300 -290 560 -541 1021 -987 1255
-1217 l155 -153 993 0 c545 0 992 2 992 4 0 2 -156 156 -347 342 -192 186
-427 415 -523 509 -96 93 -321 312 -500 485 -179 173 -392 381 -475 461 -183
178 -426 411 -560 539 -55 52 -154 147 -220 210 -66 64 -174 167 -240 230 -66
63 -181 174 -256 247 l-135 133 -1000 0 -999 0 70 -67z"/>
<path d="M8515 10698 c-38 -40 -111 -118 -164 -173 -53 -55 -141 -149 -195
-210 -54 -60 -140 -153 -190 -205 -50 -52 -111 -117 -135 -145 -24 -27 -103
-113 -176 -190 -72 -77 -176 -189 -231 -249 -54 -61 -147 -160 -205 -220 -58
-61 -150 -160 -204 -221 -54 -60 -146 -160 -204 -220 -58 -61 -137 -146 -175
-190 -39 -44 -95 -106 -125 -137 l-55 -58 546 0 c454 0 548 2 555 14 7 13 326
341 853 881 118 121 300 308 405 415 104 107 271 278 370 380 257 263 494 508
540 558 l39 42 -590 0 -591 0 -68 -72z m1078 37 c-3 -9 -8 -14 -10 -11 -3 3
-2 9 2 15 9 16 15 13 8 -4z m-38 -45 c-3 -5 -11 -10 -16 -10 -6 0 -7 5 -4 10
3 6 11 10 16 10 6 0 7 -4 4 -10z"/>
<path d="M5305 8141 l-29 -6 27 -18 c14 -9 29 -17 32 -17 3 0 30 -18 60 -40
30 -22 56 -40 59 -40 3 0 71 -42 151 -92 81 -51 155 -97 164 -103 15 -9 432
-270 486 -305 27 -17 150 -94 180 -113 11 -6 34 -22 52 -34 17 -13 34 -23 38
-23 3 0 18 -8 33 -18 15 -11 47 -32 72 -47 25 -16 70 -46 102 -67 31 -21 60
-38 65 -38 5 0 20 -11 33 -25 22 -23 22 -28 11 -67 -7 -24 -19 -58 -27 -76 -8
-18 -14 -41 -14 -50 0 -10 -4 -22 -8 -27 -4 -6 -16 -37 -26 -70 -10 -33 -22
-68 -27 -77 -5 -10 -9 -26 -9 -35 0 -10 -7 -31 -15 -47 -8 -15 -15 -37 -15
-47 0 -10 -4 -21 -10 -24 -5 -3 -10 -16 -10 -28 0 -12 -7 -35 -15 -51 -8 -15
-15 -37 -15 -47 0 -11 -4 -27 -9 -37 -30 -59 -62 -135 -77 -184 l-18 -58 -185
0 c-348 1 -4426 -42 -4449 -46 -30 -6 -18 -24 16 -24 15 0 40 -7 56 -15 15 -8
41 -15 56 -15 15 0 41 -7 58 -16 18 -8 36 -13 42 -9 5 3 24 -1 42 -9 18 -8 47
-17 63 -19 44 -8 118 -28 137 -38 10 -5 31 -9 47 -9 16 0 42 -7 57 -15 16 -8
41 -15 56 -15 15 0 29 -4 32 -9 3 -5 23 -11 43 -14 48 -6 122 -25 148 -37 11
-5 36 -11 55 -14 65 -9 134 -26 144 -36 6 -6 21 -10 35 -10 13 0 38 -4 55 -9
114 -34 146 -42 241 -60 22 -4 50 -13 62 -19 12 -7 32 -12 44 -12 12 0 36 -4
53 -9 115 -34 149 -42 241 -60 23 -4 47 -11 55 -16 8 -5 32 -12 55 -16 22 -5
63 -13 92 -18 28 -5 61 -14 72 -20 11 -6 33 -11 50 -11 16 0 33 -4 36 -10 3
-5 18 -10 33 -10 15 0 50 -7 77 -16 91 -29 111 -34 134 -34 12 0 32 -5 43 -11
11 -6 48 -13 82 -15 33 -2 525 -42 1091 -89 567 -47 1036 -85 1041 -85 6 0 19
26 29 58 11 31 23 61 27 66 4 6 8 20 8 32 0 26 15 23 -325 59 -132 14 -460 50
-730 80 -269 29 -875 96 -1345 147 l-855 93 190 5 c188 5 209 14 60 27 -33 2
-64 9 -69 14 -6 5 -22 9 -37 9 -15 0 -43 7 -62 15 -20 8 -50 15 -67 15 -32 0
-40 14 -14 24 26 10 76 7 134 -9 33 -9 101 -15 171 -15 64 0 138 -4 165 -9 27
-5 177 -12 334 -16 157 -3 337 -10 400 -15 63 -5 275 -10 470 -10 195 0 463
-5 595 -10 132 -5 434 -12 672 -15 l431 -6 16 32 c9 18 16 42 16 55 0 13 5 26
10 29 6 3 10 15 10 25 0 11 6 34 14 52 7 18 19 51 25 73 7 22 18 56 26 75 7
19 21 62 31 95 9 33 21 67 25 75 4 8 12 35 19 60 7 25 18 61 25 80 7 19 25 76
40 125 15 50 31 98 36 107 5 10 9 24 9 33 0 8 6 29 14 47 7 18 19 51 25 73 7
22 18 56 26 75 7 19 18 55 25 80 6 25 18 58 26 73 26 53 18 90 -28 133 -24 22
-68 55 -98 74 -30 19 -57 37 -60 41 -9 11 -643 404 -683 423 -21 9 -36 23 -34
29 5 17 3727 22 4122 6 465 -19 697 -37 727 -55 7 -5 36 -12 63 -16 96 -13
172 -37 235 -73 19 -11 49 -27 65 -35 61 -30 265 -252 265 -288 0 -4 11 -29
24 -57 57 -121 69 -188 69 -375 1 -144 -13 -296 -29 -321 -3 -6 -10 -36 -15
-67 -11 -79 -27 -153 -38 -177 -6 -11 -12 -36 -15 -55 -11 -78 -23 -130 -33
-142 -6 -7 -13 -29 -16 -48 -2 -19 -12 -60 -21 -90 -17 -54 -29 -97 -46 -155
-32 -112 -91 -257 -170 -415 -50 -101 -50 -101 -118 -210 -54 -85 -67 -104
-152 -216 -98 -131 -274 -296 -430 -403 -57 -40 -146 -87 -240 -129 -19 -8
-43 -19 -52 -23 -10 -5 -26 -9 -36 -9 -10 0 -27 -7 -38 -15 -10 -8 -29 -15
-41 -15 -12 0 -32 -4 -45 -9 -31 -11 -111 -32 -173 -43 -49 -9 -101 -16 -295
-37 -284 -31 -937 -37 -2677 -24 -947 7 -908 4 -884 51 5 9 21 58 36 107 15
50 30 97 34 105 4 8 16 42 25 75 10 33 24 76 31 95 8 19 19 53 26 75 6 22 18
55 25 73 8 18 14 39 14 47 0 9 4 23 9 33 13 26 33 93 29 97 -2 2 -388 79 -858
170 -470 91 -900 174 -954 185 -54 11 -106 20 -114 20 -28 0 -3 -13 40 -21 24
-5 66 -13 95 -18 28 -5 61 -14 72 -20 11 -6 33 -11 50 -11 16 0 33 -4 36 -10
3 -5 20 -10 36 -10 17 0 40 -5 52 -12 12 -6 41 -15 65 -20 23 -4 61 -12 85
-16 23 -5 52 -14 64 -20 12 -7 37 -12 57 -12 19 0 38 -4 41 -10 3 -5 21 -10
38 -10 18 0 41 -7 51 -15 11 -8 37 -15 57 -15 21 0 41 -4 44 -10 3 -5 22 -10
41 -10 20 0 45 -5 57 -12 12 -6 41 -15 65 -20 23 -4 61 -12 85 -16 23 -5 49
-12 57 -17 8 -5 34 -12 57 -17 24 -4 62 -12 86 -16 23 -5 49 -12 57 -17 14 -9
56 -18 152 -34 76 -12 91 -34 65 -94 -21 -49 -37 -101 -37 -123 0 -10 -7 -28
-15 -38 -8 -11 -15 -30 -15 -42 0 -13 -4 -26 -10 -29 -5 -3 -10 -15 -10 -25 0
-11 -6 -34 -14 -52 -7 -18 -19 -51 -25 -73 -7 -22 -18 -56 -26 -75 -7 -19 -18
-55 -25 -80 -7 -25 -20 -61 -30 -80 -10 -19 -23 -52 -30 -73 -9 -30 -16 -37
-29 -32 -9 4 -67 25 -130 46 l-114 40 -891 2 c-804 2 -904 0 -1021 -16 -290
-39 -505 -86 -696 -153 -150 -52 -233 -95 -383 -201 -36 -25 -235 -227 -259
-263 -93 -137 -101 -153 -164 -313 -149 -384 -406 -1187 -479 -1502 -29 -122
-26 -430 4 -537 54 -197 173 -356 337 -455 51 -31 180 -93 192 -93 7 0 21 -4
31 -9 50 -25 125 -44 234 -60 31 -5 62 -12 70 -17 13 -9 48 -13 308 -36 293
-26 1344 -10 1825 27 647 51 931 139 1163 359 l42 40 43 -46 c43 -47 160 -144
257 -214 60 -44 119 -74 143 -74 9 0 18 -4 21 -9 3 -5 20 -11 38 -14 18 -3 59
-10 90 -16 31 -5 63 -13 70 -17 17 -11 115 -22 303 -33 83 -5 179 -14 215 -20
46 -8 2097 -11 7033 -11 6627 0 6968 1 6973 18 3 9 11 31 18 47 8 17 21 53 29
80 14 45 24 74 47 140 25 73 34 97 52 155 11 36 24 69 29 74 5 6 9 22 9 37 0
15 4 30 9 33 5 3 11 18 14 33 3 16 19 66 37 113 17 47 34 94 37 105 2 11 8 29
13 40 5 11 16 45 26 75 21 69 27 85 48 133 9 21 16 46 16 57 0 10 4 21 9 24 5
3 11 18 14 33 4 25 15 60 38 118 4 11 10 29 12 40 3 11 20 58 37 105 17 47 34
94 37 105 2 11 8 29 12 40 13 34 32 88 48 140 8 28 21 64 28 80 7 17 20 53 29
80 21 70 37 117 47 137 5 10 9 26 9 37 0 10 8 28 18 40 17 21 20 21 587 24
l570 2 21 40 c11 22 23 52 26 65 3 14 12 41 18 60 33 91 50 140 67 195 8 28
22 64 29 82 8 17 14 38 14 46 0 9 4 18 9 21 5 3 11 18 14 33 4 28 43 145 57
173 4 9 11 31 15 50 4 19 11 40 15 45 4 6 10 21 12 35 6 29 44 140 65 187 7
17 13 38 13 46 0 9 4 18 9 21 5 3 11 18 14 33 4 28 43 145 57 173 4 9 11 30
14 48 4 17 12 34 17 37 5 4 9 19 9 34 0 15 5 32 11 38 17 17 -112 21 -926 33
-401 6 -1002 15 -1335 20 -814 13 -1167 13 -1172 0 -2 -8 -25 -7 -71 2 -57 11
-67 16 -67 33 1 23 21 99 37 135 6 14 16 45 23 70 7 25 18 60 26 78 8 18 14
41 14 52 0 10 5 22 10 25 6 3 10 15 10 26 0 43 44 101 152 200 62 57 198 188
303 290 104 102 226 219 270 260 44 41 174 166 290 279 116 113 259 250 319
305 60 55 191 179 290 275 100 97 215 207 256 245 41 38 156 149 255 246 99
96 223 216 275 265 52 49 190 179 305 290 116 110 239 227 275 260 152 140
243 230 256 256 17 32 18 101 3 130 -6 11 -32 30 -57 41 l-47 22 -8950 1
c-4922 1 -8963 -1 -8980 -5z m17425 -240 c0 -10 -10 -25 -22 -34 -13 -8 -50
-41 -83 -72 -92 -88 -377 -352 -463 -429 -42 -38 -126 -115 -187 -171 -115
-106 -251 -231 -408 -374 -50 -47 -144 -133 -207 -191 -63 -59 -137 -126 -165
-150 -27 -23 -86 -77 -130 -119 -44 -42 -98 -92 -120 -110 -22 -19 -78 -69
-125 -111 -198 -179 -455 -396 -575 -484 -22 -17 -42 -33 -45 -36 -3 -3 -32
-27 -65 -54 -33 -26 -105 -92 -160 -146 -78 -77 -108 -114 -136 -172 -39 -79
-79 -185 -87 -233 -2 -16 -8 -34 -12 -40 -4 -5 -15 -37 -25 -70 -10 -33 -27
-91 -40 -130 -12 -38 -34 -108 -48 -155 -59 -188 -67 -213 -78 -226 -10 -12
-138 -14 -750 -14 -502 0 -740 3 -744 10 -4 6 -2 16 3 23 6 7 13 29 17 50 4
20 11 40 16 43 5 3 9 18 9 34 0 16 5 32 10 35 6 3 10 14 10 23 0 9 7 30 15 46
8 15 15 35 15 43 0 20 31 116 41 127 5 6 9 19 9 30 0 20 20 85 39 131 12 28
28 84 36 122 4 18 11 35 16 38 5 4 9 17 9 31 0 13 4 32 9 42 16 32 33 87 38
120 3 18 9 35 14 38 18 11 8 74 -20 126 -60 113 -126 236 -166 313 -59 112
-171 325 -221 420 -23 44 -59 112 -78 150 -20 39 -65 124 -101 190 -35 66 -80
152 -100 190 -19 39 -48 93 -64 122 -17 29 -55 101 -86 160 -31 59 -85 162
-120 228 -36 66 -81 152 -101 190 -33 65 -57 109 -158 300 -21 39 -44 78 -53
87 -8 9 -12 22 -8 27 4 8 271 11 870 11 l864 0 31 -66 c16 -36 30 -69 30 -74
0 -4 12 -32 26 -62 15 -29 31 -64 36 -78 18 -44 35 -84 63 -145 15 -33 32 -71
37 -85 6 -14 16 -38 23 -55 7 -16 17 -41 23 -55 5 -14 22 -52 37 -85 26 -57
40 -88 63 -145 6 -14 22 -51 36 -82 14 -31 26 -63 26 -71 0 -8 7 -20 15 -27 8
-7 15 -19 15 -26 0 -8 4 -22 9 -32 10 -19 33 -73 49 -112 5 -14 21 -50 35 -80
63 -136 77 -169 77 -179 0 -13 27 -15 32 -2 2 5 176 186 388 402 212 217 439
450 505 519 66 68 216 222 334 342 l215 218 575 1 c492 1 1177 11 1219 17 6 1
12 -6 12 -17z m-7395 -32 c722 -9 1043 -26 1104 -58 11 -6 30 -11 43 -11 13 0
48 -9 78 -21 30 -12 65 -23 78 -26 12 -3 22 -9 22 -14 0 -5 7 -9 15 -9 43 0
183 -132 219 -206 10 -22 23 -48 29 -59 46 -88 47 -359 1 -490 -8 -23 -14 -53
-14 -67 0 -15 -4 -29 -9 -32 -5 -3 -11 -18 -14 -33 -2 -16 -10 -44 -17 -63 -7
-19 -24 -66 -37 -105 -14 -38 -28 -79 -33 -90 -5 -11 -22 -54 -39 -96 -28 -69
-61 -142 -82 -179 -5 -8 -16 -31 -26 -50 -9 -19 -34 -63 -55 -98 -21 -34 -38
-67 -38 -72 0 -6 -4 -10 -9 -10 -5 0 -13 -10 -17 -22 -11 -36 -241 -264 -324
-322 -41 -29 -113 -72 -160 -96 -47 -23 -93 -46 -102 -51 -10 -5 -24 -9 -32
-9 -7 0 -27 -7 -42 -15 -16 -8 -39 -15 -51 -15 -12 0 -25 -4 -28 -10 -3 -5
-16 -10 -28 -10 -12 -1 -46 -9 -75 -19 -45 -15 -50 -20 -37 -31 8 -7 15 -16
15 -21 0 -5 26 -49 57 -97 32 -48 63 -98 71 -112 7 -14 20 -32 28 -41 8 -8 14
-18 14 -22 0 -3 26 -48 58 -99 32 -51 61 -100 65 -108 9 -17 10 -19 87 -145
77 -126 78 -128 87 -145 4 -8 33 -57 65 -108 32 -51 58 -95 58 -98 0 -2 11
-22 25 -45 14 -22 23 -44 20 -49 -4 -6 -312 -10 -827 -10 -750 0 -823 1 -840
17 -10 9 -18 20 -18 26 0 5 -7 25 -16 45 -9 21 -20 46 -24 57 -18 43 -43 101
-55 130 -7 17 -18 44 -25 60 -7 17 -18 44 -25 60 -19 45 -37 88 -46 110 -4 11
-15 38 -24 60 -10 22 -21 49 -25 60 -24 57 -43 102 -51 120 -5 11 -18 45 -30
75 -11 30 -25 61 -31 67 -8 10 -135 13 -574 13 -530 0 -564 -1 -564 -17 0 -10
-7 -31 -15 -47 -8 -15 -15 -35 -15 -43 0 -20 -31 -116 -41 -127 -5 -6 -9 -22
-9 -37 0 -15 -4 -31 -10 -34 -5 -3 -10 -16 -10 -28 0 -12 -7 -35 -15 -51 -8
-15 -15 -37 -15 -47 0 -11 -4 -27 -9 -37 -13 -26 -32 -84 -38 -112 -2 -14 -8
-34 -12 -45 -20 -51 -33 -92 -38 -115 -2 -14 -8 -34 -13 -45 -4 -11 -13 -39
-19 -62 -8 -31 -18 -44 -34 -48 -12 -3 -339 -4 -727 -3 -620 3 -705 5 -703 18
2 19 41 134 59 178 8 18 14 41 14 52 0 10 5 22 10 25 6 3 10 17 10 29 0 13 7
37 15 52 8 16 15 37 15 47 0 9 4 25 9 35 5 9 17 44 27 77 10 33 22 64 26 69 4
6 8 22 8 36 0 14 4 30 9 36 5 5 16 36 26 69 9 33 21 69 26 80 18 42 39 111 39
131 0 11 4 24 8 30 4 5 15 34 25 64 39 128 70 226 77 245 26 66 40 113 40 132
0 12 5 25 10 28 6 3 10 15 10 25 0 11 6 34 14 52 8 18 22 60 31 93 10 33 21
64 26 69 5 6 9 20 9 33 0 13 4 31 9 41 5 9 16 44 26 77 9 33 21 68 26 77 5 10
9 26 9 35 0 10 7 31 15 47 8 15 15 37 15 47 0 11 4 27 9 37 13 26 32 84 38
112 2 14 8 34 12 45 24 62 34 93 38 123 3 18 9 35 14 38 5 3 9 14 9 24 0 11 6
34 14 52 8 18 19 53 26 78 6 25 18 58 26 73 8 16 14 37 14 48 0 11 4 27 9 37
13 26 32 84 38 112 2 14 8 34 12 45 20 51 33 92 38 115 2 14 8 34 12 45 24 62
34 93 38 123 3 18 9 35 14 38 5 3 9 14 9 24 0 11 6 34 14 52 8 18 19 53 26 78
7 25 18 60 26 78 8 18 14 41 14 52 0 10 8 24 18 29 20 12 1805 12 2817 0z"/>
<path d="M13663 6888 c-6 -7 -13 -24 -16 -38 -3 -14 -11 -41 -17 -60 -7 -19
-16 -44 -20 -55 -4 -11 -13 -36 -19 -55 -7 -19 -15 -44 -18 -55 -2 -11 -8 -29
-12 -40 -23 -58 -34 -93 -38 -118 -3 -15 -9 -30 -14 -33 -5 -3 -9 -16 -9 -28
0 -13 -7 -37 -15 -52 -8 -16 -15 -37 -15 -46 0 -9 -5 -20 -11 -23 -5 -4 -9
-13 -7 -21 3 -13 90 -15 638 -14 759 2 955 11 1045 50 114 48 153 81 188 154
57 120 79 271 47 332 -28 54 -66 74 -190 98 -74 14 -177 16 -796 16 -557 0
-714 -3 -721 -12z"/>
<path d="M8485 6834 c-8 -20 -15 -44 -15 -53 0 -9 -4 -21 -9 -26 -5 -6 -16
-37 -26 -70 -9 -33 -20 -67 -24 -75 -4 -8 -16 -42 -25 -75 -10 -33 -24 -75
-32 -93 -8 -18 -14 -41 -14 -52 0 -10 -4 -22 -10 -25 -5 -3 -10 -17 -10 -29 0
-13 -7 -37 -15 -52 -8 -16 -15 -37 -15 -46 0 -9 -4 -20 -10 -23 -5 -3 -10 -17
-10 -29 0 -13 -7 -37 -15 -52 -8 -16 -15 -37 -15 -46 0 -9 -4 -20 -10 -23 -5
-3 -10 -19 -10 -34 0 -15 -4 -31 -8 -36 -4 -6 -16 -37 -26 -70 -10 -33 -22
-69 -26 -80 -9 -22 -31 -89 -49 -150 -7 -22 -18 -56 -26 -75 -7 -19 -21 -62
-30 -95 -10 -33 -21 -64 -26 -70 -5 -5 -9 -21 -9 -35 0 -15 -3 -30 -7 -34 -7
-7 -33 -76 -33 -88 0 -12 949 -10 1220 2 129 6 256 15 282 21 26 6 71 14 100
19 99 16 145 30 200 60 10 6 25 10 33 10 8 0 15 4 15 9 0 5 9 13 21 16 24 8
159 133 159 147 0 6 8 22 19 36 33 48 69 119 101 199 17 43 36 86 41 95 5 10
9 28 9 41 0 13 4 27 9 32 5 6 16 37 26 70 9 33 22 71 27 85 10 23 16 46 38
145 5 22 14 63 20 90 6 28 12 95 12 150 0 88 -3 107 -27 157 -39 82 -68 102
-205 146 -98 30 -189 34 -877 38 l-702 5 -16 -37z"/>
<path d="M3200 6389 c-157 -4 -669 -8 -1138 -9 -742 -2 -854 -4 -859 -17 -9
-22 16 -33 74 -33 28 0 55 -4 58 -10 9 -15 345 -13 2869 15 2278 25 2265 25
2266 58 0 9 -2881 6 -3270 -4z"/>
<path d="M4468 5513 c7 -3 16 -2 19 1 4 3 -2 6 -13 5 -11 0 -14 -3 -6 -6z"/>
</g>
</svg>
